<svg width="1200" height="420" viewBox="0 0 1200 420" xmlns="http://www.w3.org/2000/svg" role="img" aria-labelledby="title desc">
  <title id="title">Retro anime night city banner</title>
  <desc id="desc">A retro anime inspired night scene with a window, city skyline, pink curtains, stars, and a silhouetted engineer.</desc>

  <defs>
    <linearGradient id="sky" x1="0" y1="0" x2="0" y2="1">
      <stop offset="0" stop-color="#060414"/>
      <stop offset="0.48" stop-color="#081a57"/>
      <stop offset="1" stop-color="#071024"/>
    </linearGradient>
    <linearGradient id="water" x1="0" y1="0" x2="1" y2="0">
      <stop offset="0" stop-color="#071224"/>
      <stop offset="0.4" stop-color="#0b46a8"/>
      <stop offset="1" stop-color="#06091a"/>
    </linearGradient>
    <linearGradient id="curtain" x1="0" y1="0" x2="1" y2="1">
      <stop offset="0" stop-color="#ff7bd5"/>
      <stop offset="0.45" stop-color="#c84dff"/>
      <stop offset="1" stop-color="#34114f"/>
    </linearGradient>
    <linearGradient id="floor" x1="0" y1="0" x2="0" y2="1">
      <stop offset="0" stop-color="#0a2d5d"/>
      <stop offset="1" stop-color="#050711"/>
    </linearGradient>
    <filter id="glow" x="-40%" y="-40%" width="180%" height="180%">
      <feGaussianBlur stdDeviation="5" result="blur"/>
      <feMerge>
        <feMergeNode in="blur"/>
        <feMergeNode in="SourceGraphic"/>
      </feMerge>
    </filter>
    <pattern id="scanlines" width="8" height="8" patternUnits="userSpaceOnUse">
      <rect width="8" height="8" fill="transparent"/>
      <rect y="0" width="8" height="1" fill="#ffffff" opacity="0.06"/>
      <rect y="4" width="8" height="1" fill="#000000" opacity="0.14"/>
    </pattern>
    <pattern id="halftone" width="10" height="10" patternUnits="userSpaceOnUse">
      <circle cx="2" cy="2" r="1" fill="#ff8de1" opacity="0.18"/>
    </pattern>
  </defs>

  <rect width="1200" height="420" fill="#050711"/>
  <rect x="66" y="28" width="1068" height="320" rx="0" fill="url(#sky)" stroke="#2cecff" stroke-width="3"/>
  <rect x="66" y="232" width="1068" height="116" fill="url(#water)" opacity="0.88"/>

  <g opacity="0.95">
    <circle cx="181" cy="76" r="2" fill="#d7f7ff"/>
    <circle cx="251" cy="111" r="1.6" fill="#d7f7ff"/>
    <circle cx="342" cy="63" r="2" fill="#fff2ff"/>
    <circle cx="506" cy="97" r="1.5" fill="#d7f7ff"/>
    <circle cx="611" cy="57" r="2.4" fill="#fff2ff"/>
    <circle cx="758" cy="119" r="1.8" fill="#d7f7ff"/>
    <circle cx="891" cy="73" r="1.5" fill="#fff2ff"/>
    <circle cx="1004" cy="107" r="2" fill="#d7f7ff"/>
    <circle cx="1070" cy="61" r="1.6" fill="#fff2ff"/>
  </g>

  <g fill="#02050d">
    <rect x="150" y="196" width="28" height="86"/>
    <rect x="190" y="175" width="36" height="107"/>
    <rect x="238" y="207" width="46" height="75"/>
    <rect x="314" y="185" width="32" height="97"/>
    <rect x="365" y="221" width="58" height="61"/>
    <rect x="704" y="203" width="40" height="79"/>
    <rect x="762" y="179" width="32" height="103"/>
    <rect x="815" y="214" width="58" height="68"/>
    <rect x="905" y="192" width="42" height="90"/>
    <rect x="963" y="222" width="72" height="60"/>
  </g>

  <g opacity="0.55" stroke="#64f7ff" stroke-width="2">
    <path d="M95 266 C210 248, 291 289, 410 262 S634 252, 759 276 S987 248, 1120 268" fill="none"/>
    <path d="M102 292 C240 277, 312 307, 468 286 S684 286, 815 305 S1029 282, 1118 299" fill="none"/>
  </g>

  <rect x="66" y="348" width="1068" height="72" fill="url(#floor)"/>
  <g stroke="#1cc9ff" opacity="0.7">
    <path d="M66 372 H1134"/>
    <path d="M66 400 H1134"/>
    <path d="M202 348 L142 420"/>
    <path d="M391 348 L350 420"/>
    <path d="M815 348 L860 420"/>
    <path d="M1001 348 L1084 420"/>
  </g>

  <path d="M68 28 C111 112, 91 217, 37 420 H0 V0 H72 Z" fill="url(#curtain)"/>
  <path d="M183 0 C228 116, 164 212, 235 420 H132 C146 302, 108 214, 152 103 C164 74, 173 37, 183 0 Z" fill="url(#curtain)" opacity="0.95"/>
  <path d="M1122 0 C1067 112, 1126 213, 1050 420 H1200 V0 Z" fill="url(#curtain)"/>
  <path d="M996 0 C973 106, 1044 222, 956 420 H1056 C1062 296, 1016 207, 1027 118 C1033 69, 1018 31, 996 0 Z" fill="url(#curtain)" opacity="0.94"/>
  <rect width="1200" height="420" fill="url(#halftone)" opacity="0.35"/>

  <g transform="translate(560 128)">
    <ellipse cx="40" cy="222" rx="64" ry="9" fill="#000000" opacity="0.42"/>
    <path d="M41 16 C25 18, 18 29, 19 46 C20 62, 31 70, 43 70 C58 70, 67 59, 66 43 C65 27, 56 15, 41 16 Z" fill="#070812"/>
    <path d="M21 76 C13 110, 12 163, 18 211 H67 C76 160, 75 111, 63 76 C51 68, 34 67, 21 76 Z" fill="#080913"/>
    <path d="M18 100 C-5 124, -13 154, -8 191 C-5 202, 3 205, 10 197 C8 161, 17 137, 31 115 Z" fill="#080913"/>
    <path d="M64 102 C84 129, 87 154, 82 191 C80 204, 91 207, 96 195 C103 153, 93 122, 69 98 Z" fill="#080913"/>
    <path d="M23 211 L20 270 H38 L45 211 Z" fill="#070812"/>
    <path d="M56 211 L64 270 H82 L73 211 Z" fill="#070812"/>
    <rect x="8" y="190" width="12" height="26" rx="4" fill="#ffe7f6"/>
    <rect x="83" y="190" width="12" height="25" rx="4" fill="#ffe7f6"/>
    <path d="M38 10 C29 12, 24 18, 20 26 C28 24, 33 20, 38 13 C40 27, 54 25, 66 37 C67 22, 55 8, 38 10 Z" fill="#05050b"/>
  </g>

  <g filter="url(#glow)">
    <text x="90" y="106" font-family="Courier New, monospace" font-size="30" fill="#ff7bd5" letter-spacing="4">SWE // AI/ML</text>
    <text x="90" y="143" font-family="Courier New, monospace" font-size="18" fill="#7ffcff" letter-spacing="3">BACKEND SYSTEMS - CLOUD - AGENTS</text>
    <text x="90" y="181" font-family="Courier New, monospace" font-size="15" fill="#dfe7ff">Dhruv Diwakirti :: production-minded intelligent software</text>
  </g>

  <rect width="1200" height="420" fill="url(#scanlines)"/>
  <rect x="66" y="28" width="1068" height="320" fill="none" stroke="#ff7bd5" stroke-width="1" opacity="0.55"/>
</svg>
